<?xml version="1.0" encoding="UTF-8"?>
<svg id="Capa_3" data-name="Capa 3" xmlns="http://www.w3.org/2000/svg" viewBox="0 0 539.37 301.5">
  <defs>
    <style>
      .cls-1 {
        fill: #707070;
        stroke-width: 0px;
      }
    </style>
  </defs>
  <g>
    <path class="cls-1" d="M74.19,262.01h5.63l15.22,34.83h-6.42l-3.51-8.35h-16.35l-3.56,8.35h-6.22l15.22-34.83ZM82.88,283.11l-5.98-13.83-5.93,13.83h11.9Z"/>
    <path class="cls-1" d="M132.39,297.34c-1.88,0-3.78-.33-5.71-1-1.93-.67-3.71-1.65-5.36-2.95l2.67-4.06c1.42,1.05,2.86,1.85,4.32,2.4,1.47.54,2.88.82,4.22.82s2.28-.26,2.99-.76,1.06-1.19,1.06-2.05v-.1c0-.49-.16-.92-.47-1.28-.31-.36-.74-.67-1.28-.94-.54-.26-1.17-.51-1.88-.74s-1.44-.46-2.2-.69c-.95-.26-1.92-.58-2.89-.94-.97-.36-1.85-.83-2.62-1.4-.77-.58-1.41-1.29-1.9-2.14-.49-.86-.74-1.91-.74-3.15v-.1c0-1.22.24-2.32.72-3.3.48-.99,1.13-1.82,1.98-2.51.84-.69,1.83-1.22,2.96-1.58,1.13-.36,2.35-.54,3.63-.54,1.65,0,3.31.27,4.99.8,1.68.53,3.21,1.26,4.6,2.2l-2.37,4.27c-1.25-.76-2.52-1.36-3.81-1.8s-2.47-.67-3.56-.67c-1.15,0-2.05.25-2.69.74-.64.49-.96,1.12-.96,1.87v.1c0,.46.16.86.49,1.21.33.34.77.66,1.31.94.55.28,1.17.54,1.88.79.71.25,1.44.49,2.2.72.95.3,1.91.64,2.87,1.04.95.39,1.82.88,2.59,1.45.77.58,1.41,1.27,1.9,2.1.49.82.74,1.82.74,3.01v.1c0,1.38-.25,2.58-.74,3.6s-1.18,1.87-2.05,2.54c-.88.67-1.9,1.18-3.09,1.53-1.19.35-2.45.52-3.8.52Z"/>
    <path class="cls-1" d="M183.72,297.44c-1.98,0-3.81-.35-5.51-1.06-1.7-.71-3.16-1.67-4.4-2.89-1.23-1.22-2.2-2.65-2.89-4.3-.69-1.65-1.04-3.39-1.04-5.24v-.1c0-1.88.35-3.64,1.06-5.29.71-1.65,1.68-3.09,2.92-4.32,1.23-1.24,2.7-2.21,4.4-2.94s3.55-1.09,5.56-1.09,3.86.35,5.56,1.06c1.7.71,3.16,1.68,4.4,2.91,1.23,1.24,2.2,2.67,2.89,4.3.69,1.63,1.04,3.38,1.04,5.26v.1c0,1.84-.35,3.59-1.06,5.24-.71,1.65-1.68,3.09-2.92,4.32-1.23,1.24-2.71,2.22-4.42,2.94-1.71.72-3.57,1.09-5.58,1.09ZM183.82,292.25c1.21,0,2.3-.22,3.26-.67.96-.44,1.79-1.04,2.48-1.8.68-.76,1.21-1.64,1.57-2.64.36-1.01.54-2.07.54-3.19v-.1c0-1.15-.19-2.24-.59-3.26-.4-1.02-.94-1.91-1.65-2.67-.71-.76-1.54-1.36-2.5-1.8-.97-.44-2.04-.67-3.22-.67s-2.25.22-3.22.67c-.97.44-1.79,1.04-2.48,1.78-.69.74-1.21,1.62-1.57,2.64-.36,1.02-.54,2.09-.54,3.21v.1c0,1.15.2,2.23.59,3.24.39,1.01.94,1.89,1.65,2.67.71.78,1.54,1.38,2.5,1.83s2.02.67,3.17.67Z"/>
    <path class="cls-1" d="M239.06,297.44c-1.94,0-3.74-.35-5.39-1.06-1.65-.71-3.08-1.67-4.29-2.89s-2.16-2.65-2.84-4.3c-.68-1.65-1.02-3.39-1.02-5.24v-.1c0-1.84.34-3.6,1.02-5.26.68-1.66,1.63-3.11,2.84-4.35s2.65-2.21,4.31-2.94c1.67-.72,3.47-1.09,5.41-1.09,2.47,0,4.52.41,6.15,1.24,1.63.82,3.06,1.91,4.27,3.26l-3.7,4c-.92-.96-1.9-1.74-2.94-2.35-1.04-.61-2.31-.91-3.83-.91-1.09,0-2.09.22-3.01.67-.92.44-1.71,1.04-2.37,1.78-.66.74-1.18,1.62-1.56,2.64-.38,1.02-.57,2.09-.57,3.21v.1c0,1.15.19,2.24.57,3.26.38,1.02.91,1.91,1.6,2.67s1.52,1.36,2.47,1.8c.95.44,2.01.67,3.16.67,1.42,0,2.66-.3,3.73-.91,1.07-.61,2.08-1.39,3.04-2.35l3.6,3.56c-1.28,1.45-2.75,2.63-4.4,3.53-1.65.91-3.74,1.36-6.28,1.36Z"/>
    <path class="cls-1" d="M278.43,261.08h6.47v5.68h-6.47v-5.68ZM278.68,270.76h6.03v26.09h-6.03v-26.09Z"/>
    <path class="cls-1" d="M331.59,296.85v-3.21c-.89,1.05-2.03,1.94-3.41,2.67-1.38.72-3.06,1.09-5.04,1.09-1.25,0-2.44-.17-3.56-.52-1.12-.35-2.1-.86-2.94-1.53-.84-.67-1.51-1.51-2.02-2.52-.51-1-.77-2.17-.77-3.48v-.1c0-1.45.26-2.71.79-3.78.53-1.07,1.26-1.96,2.2-2.67.94-.71,2.06-1.24,3.36-1.58s2.71-.52,4.22-.52,2.92.1,4.03.3,2.17.46,3.19.79v-.49c0-1.81-.55-3.19-1.66-4.15-1.1-.96-2.69-1.43-4.77-1.43-1.48,0-2.8.15-3.95.44-1.15.3-2.32.69-3.51,1.19l-1.63-4.79c1.45-.66,2.93-1.19,4.45-1.58s3.34-.59,5.49-.59c3.88,0,6.77.96,8.65,2.89,1.88,1.93,2.81,4.64,2.81,8.13v15.46h-5.93ZM331.74,285.93c-.76-.3-1.66-.54-2.69-.74-1.04-.2-2.13-.3-3.28-.3-1.88,0-3.34.36-4.4,1.09-1.05.73-1.58,1.71-1.58,2.97v.1c0,1.25.49,2.21,1.46,2.87s2.17.99,3.58.99c.99,0,1.9-.13,2.74-.4.84-.26,1.57-.63,2.2-1.11.63-.48,1.11-1.05,1.46-1.73.35-.67.52-1.42.52-2.25v-1.48Z"/>
    <path class="cls-1" d="M379.91,297.44c-1.95,0-3.74-.35-5.39-1.06-1.65-.71-3.08-1.67-4.29-2.89-1.21-1.22-2.16-2.65-2.84-4.3s-1.02-3.39-1.02-5.24v-.1c0-1.84.34-3.6,1.02-5.26.68-1.66,1.63-3.11,2.84-4.35,1.21-1.24,2.65-2.21,4.31-2.94,1.67-.72,3.47-1.09,5.41-1.09,2.47,0,4.52.41,6.15,1.24,1.63.82,3.05,1.91,4.27,3.26l-3.7,4c-.92-.96-1.9-1.74-2.94-2.35-1.04-.61-2.32-.91-3.83-.91-1.09,0-2.09.22-3.02.67-.92.44-1.71,1.04-2.37,1.78-.66.74-1.18,1.62-1.56,2.64-.38,1.02-.57,2.09-.57,3.21v.1c0,1.15.19,2.24.57,3.26.38,1.02.92,1.91,1.61,2.67s1.51,1.36,2.47,1.8c.95.44,2.01.67,3.16.67,1.41,0,2.66-.3,3.73-.91,1.07-.61,2.08-1.39,3.04-2.35l3.6,3.56c-1.28,1.45-2.75,2.63-4.4,3.53-1.65.91-3.74,1.36-6.28,1.36Z"/>
    <path class="cls-1" d="M419.29,261.08h6.47v5.68h-6.47v-5.68ZM419.54,270.76h6.03v26.09h-6.03v-26.09Z"/>
    <path class="cls-1" d="M468.89,297.44c-1.98,0-3.81-.35-5.51-1.06-1.7-.71-3.16-1.67-4.4-2.89-1.23-1.22-2.2-2.65-2.89-4.3-.69-1.65-1.04-3.39-1.04-5.24v-.1c0-1.88.35-3.64,1.06-5.29.71-1.65,1.68-3.09,2.92-4.32,1.23-1.24,2.7-2.21,4.4-2.94,1.69-.72,3.55-1.09,5.56-1.09s3.86.35,5.56,1.06c1.7.71,3.16,1.68,4.4,2.91,1.23,1.24,2.2,2.67,2.89,4.3.69,1.63,1.04,3.38,1.04,5.26v.1c0,1.84-.35,3.59-1.06,5.24-.71,1.65-1.68,3.09-2.92,4.32-1.23,1.24-2.71,2.22-4.42,2.94-1.71.72-3.57,1.09-5.58,1.09ZM468.99,292.25c1.21,0,2.3-.22,3.26-.67.97-.44,1.79-1.04,2.48-1.8s1.21-1.64,1.57-2.64c.36-1.01.54-2.07.54-3.19v-.1c0-1.15-.2-2.24-.59-3.26-.4-1.02-.94-1.91-1.65-2.67-.71-.76-1.54-1.36-2.5-1.8-.97-.44-2.04-.67-3.22-.67s-2.25.22-3.22.67-1.79,1.04-2.48,1.78c-.68.74-1.21,1.62-1.57,2.64-.36,1.02-.54,2.09-.54,3.21v.1c0,1.15.19,2.23.59,3.24.39,1.01.94,1.89,1.64,2.67.71.78,1.54,1.38,2.5,1.83.97.44,2.02.67,3.17.67ZM471.83,259.35l5.41,2.42-6,5.68h-4.62l5.21-8.1Z"/>
    <path class="cls-1" d="M512.12,270.76h6.03v4.09c.43-.63.9-1.22,1.4-1.77.51-.55,1.1-1.04,1.78-1.47.67-.43,1.41-.77,2.22-1.02.8-.25,1.71-.37,2.73-.37,2.96,0,5.24.91,6.85,2.72,1.61,1.81,2.42,4.25,2.42,7.31v16.6h-6.03v-14.79c0-2.04-.48-3.61-1.45-4.71-.96-1.1-2.33-1.65-4.09-1.65s-3.13.57-4.21,1.7c-1.08,1.13-1.62,2.72-1.62,4.76v14.69h-6.03v-26.09Z"/>
  </g>
  <g>
    <path class="cls-1" d="M394.48,188.6c9.06,0,16.2,7.49,16.2,16.2,0,9.68-6.58,16.11-16.2,16.2-8.24.08-16.2-7.98-16.2-16.2v-112.33c.01-48.58-39.37-87.96-87.95-87.96h-89.32v41.09h-54.08c-48.31,0-87.64,39.69-87.95,87.94h-4.49c-12.81,0-23.19-10.38-23.19-23.19v-21.31H3.77v21.31c0,28.02,22.71,50.73,50.73,50.73h4.48v87.47h27.53v-115c0-33.37,27.06-60.43,60.43-60.43h54.08v13.44c0,28.02,22.71,50.73,50.73,50.73h18.24v-27.53h-18.24c-12.81,0-23.2-10.39-23.2-23.2v-54.51h61.79c33.37,0,60.43,27.06,60.43,60.43v114.42c0,22.71,21.02,41.64,43.72,41.64,24.41,0,43.72-19.69,43.72-43.72s-19.6-43.73-43.72-43.73h-5.45v27.53h5.45Z"/>
    <path class="cls-1" d="M491.81,248.53c-24.11,0-43.73-19.62-43.73-43.73s19.62-43.73,43.73-43.73,43.74,19.62,43.74,43.73-19.62,43.73-43.74,43.73ZM491.81,188.6c-8.93,0-16.2,7.27-16.2,16.2s7.27,16.2,16.2,16.2,16.2-7.27,16.2-16.2-7.27-16.2-16.2-16.2Z"/>
    <path class="cls-1" d="M183.24,248.53h-43.74c-24.11,0-43.73-19.62-43.73-43.73s19.62-43.73,43.73-43.73h43.74v87.47ZM139.5,188.6c-8.93,0-16.2,7.27-16.2,16.2s7.27,16.2,16.2,16.2h16.2v-32.4h-16.2Z"/>
    <path class="cls-1" d="M297.16,161.07c-11.6,0-22.13,4.57-29.97,11.97-7.84-7.4-18.37-11.97-29.97-11.97-24.11,0-43.73,19.62-43.73,43.73v43.73h27.53v-43.73c0-8.93,7.27-16.2,16.2-16.2s16.2,7.27,16.2,16.2v43.73h27.53v-43.73c0-8.93,7.27-16.2,16.2-16.2s16.2,7.27,16.2,16.2v43.73h27.53v-43.73c0-24.11-19.62-43.73-43.73-43.73Z"/>
    <circle class="cls-1" cx="313.39" cy="96" r="13.75"/>
  </g>
</svg>